<svg xmlns="http://www.w3.org/2000/svg" xmlns:xlink="http://www.w3.org/1999/xlink" xml:space="preserve" version="1.1" x="0px" y="0px" viewBox="5 5 90 90" width="100%" height="100%" fill="currentColor"><path d="M85,35L65,35L65,15C65,12.239,62.761,10,60,10L40,10C37.239,10,35,12.239,35,15L35,35L15,35C12.239,35,10,37.239,10,40L10,60C10,62.761,12.239,65,15,65L35,65L35,85C35,87.761,37.239,90,40,90L60,90C62.761,90,65,87.761,65,85L65,65L85,65C87.761,65,90,62.761,90,60L90,40C90,37.239,87.761,35,85,35ZM25,55L17.5,50L25,45L25,55ZM50,82.5L45,75L55,75L50,82.5ZM45,25L50,17.5L55,25L45,25ZM75,55L75,45L82.5,50L75,55Z" stroke="none"></path></svg>