<?xml version="1.0" encoding="utf-8"?><!-- Uploaded to: SVG Repo, www.svgrepo.com, Generator: SVG Repo Mixer Tools -->
<svg fill="currentColor" width="800px" height="800px" viewBox="0 0 50 50" xmlns="http://www.w3.org/2000/svg" xmlns:xlink="http://www.w3.org/1999/xlink"><path d="M20 2L20 5C20 6.6449698 21.35503 8 23 8L24 8L24 16.033203C21.845713 16.169586 19.809892 16.740001 17.972656 17.640625 A 1.0001544 1.0001544 0 1 0 18.851562 19.4375C19.813513 18.965946 20.835305 18.602965 21.900391 18.357422C21.337575 21.880329 21 26.67855 21 32C21 32.663628 21.024861 33.281828 21.035156 33.927734C19.64273 33.879974 18.31422 33.807889 17.058594 33.714844C17.044208 33.387661 17.023771 33.064419 17.017578 32.732422 A 1.0001 1.0001 0 0 0 15.984375 31.738281 A 1.0001 1.0001 0 0 0 15.017578 32.771484C15.022341 33.026809 15.039537 33.274591 15.048828 33.527344C13.55407 33.378286 12.204925 33.202743 11.050781 32.998047C11.027483 32.66713 11 32.336941 11 32C11 31.86925 11.019427 31.687304 11.029297 31.439453 A 1.0001 1.0001 0 0 0 10.054688 30.384766 A 1.0001 1.0001 0 0 0 9.03125 31.359375C9.0251147 31.513524 9 31.72475 9 32C9 34.33617 9.5147053 36.550244 10.417969 38.552734 A 1.0001 1.0001 0 0 0 10.554688 38.833984C12.144964 42.182308 14.856917 44.886652 18.210938 46.466797 A 1.0001759 1.0001759 0 0 0 18.378906 46.548828C20.399427 47.471879 22.636829 48 25 48C27.23247 48 29.361333 47.538629 31.292969 46.710938 A 1.0001 1.0001 0 1 0 30.505859 44.873047C29.736955 45.202517 28.929514 45.455795 28.097656 45.644531C28.277668 44.518142 28.420438 43.200611 28.550781 41.837891C29.460418 41.756668 30.352262 41.649967 31.214844 41.511719 A 1.0001 1.0001 0 1 0 30.898438 39.537109C30.194124 39.649992 29.466061 39.737402 28.726562 39.810547C28.814215 38.5745 28.885131 37.285404 28.929688 35.929688C30.612938 35.874366 32.213825 35.784981 33.707031 35.664062 A 1.0001 1.0001 0 0 0 34.287109 35.605469C35.862636 35.466232 37.351969 35.305167 38.628906 35.101562C38.489587 35.701514 38.325116 36.292416 38.113281 36.863281 A 1.0001 1.0001 0 1 0 39.988281 37.558594C40.629388 35.830901 41 33.960704 41 32C41 25.627451 37.2484 20.131992 31.845703 17.560547 A 1.0001 1.0001 0 0 0 31.550781 17.417969C29.837923 16.645578 27.967779 16.173192 26 16.050781L26 8L27 8C28.64497 8 30 6.6449698 30 5L30 2L20 2 z M 22 4L28 4L28 5C28 5.5650302 27.56503 6 27 6L23 6C22.43497 6 22 5.5650302 22 5L22 4 z M 8 13C8 13 10.5625 16.496219 11.6875 17.949219C10.5625 19.402219 8 22.898437 8 22.898438C8 22.898438 11.496219 20.335844 12.949219 19.214844C14.402219 20.335844 17.902344 22.898437 17.902344 22.898438C17.902344 22.898438 15.336844 19.402219 14.214844 17.949219C15.336844 16.496219 17.902344 13 17.902344 13C17.902344 13 14.402219 15.562594 12.949219 16.683594C11.496219 15.562594 8 13 8 13 z M 25 18C25.336941 18 25.66713 18.027483 25.998047 18.050781C26.201984 19.201959 26.376533 20.54706 26.525391 22.037109C26.020209 22.01864 25.515209 22 25 22C24.485304 22 23.977577 22.011659 23.474609 22.03125C23.623033 20.546723 23.79688 19.206332 24 18.058594C24.332081 18.034434 24.661464 18 25 18 z M 28.097656 18.353516C28.928447 18.540789 29.734764 18.79369 30.501953 19.121094C30.981472 20.151155 31.403785 21.313971 31.761719 22.582031C30.726915 22.400309 29.656615 22.256434 28.550781 22.160156C28.420397 20.797419 28.27771 19.48001 28.097656 18.353516 z M 33.296875 20.734375C34.429592 21.56928 35.428551 22.568625 36.263672 23.701172C35.529594 23.454451 34.757369 23.237631 33.958984 23.041016C33.762037 22.241949 33.543965 21.469013 33.296875 20.734375 z M 25 24C25.578812 24 26.148066 24.016139 26.712891 24.041016C26.806598 25.301504 26.879693 26.636562 26.927734 28.035156C26.281584 28.024874 25.66391 28 25 28C24.337716 28 23.713653 28.019874 23.072266 28.03125C23.120287 26.634627 23.193551 25.301854 23.287109 24.042969C23.852048 24.016984 24.421544 24 25 24 z M 28.726562 24.181641C29.965638 24.302668 31.159087 24.48041 32.289062 24.710938C32.519714 25.840331 32.697157 27.033111 32.818359 28.271484C31.580604 28.183672 30.287537 28.11684 28.929688 28.072266C28.885039 26.713181 28.814519 25.420437 28.726562 24.181641 z M 13 25C13 25 14.097875 26.937969 14.796875 28.042969C14.097875 29.116969 13 31 13 31C13 31 14.91 29.930094 16 29.246094C17.09 29.930094 19 31 19 31C19 31 17.902125 29.116969 17.203125 28.042969C17.902125 26.937969 19 25 19 25C19 25 17.09 26.124844 16 26.839844C14.91 26.124844 13 25 13 25 z M 34.416016 25.234375C35.68498 25.592178 36.848248 26.01633 37.878906 26.496094C38.206635 27.263775 38.459078 28.070966 38.646484 28.902344C37.519916 28.722117 36.202575 28.577611 34.839844 28.447266C34.743301 27.340218 34.598245 26.270217 34.416016 25.234375 z M 25 30C25.675872 30 26.305534 30.026001 26.962891 30.037109C26.974018 30.694449 27 31.32414 27 32C27 32.67586 26.974018 33.305527 26.962891 33.962891C26.305527 33.974018 25.67586 34 25 34C24.32414 34 23.694455 33.973998 23.037109 33.962891C23.025982 33.305527 23 32.67586 23 32C23 31.322124 23.025916 30.690514 23.037109 30.03125C23.689545 30.019564 24.32723 30 25 30 z M 28.964844 30.072266C30.363475 30.120241 31.698475 30.191508 32.958984 30.285156C32.983958 30.850596 33 31.420542 33 32C33 32.579994 32.965061 33.144887 32.9375 33.712891C31.682897 33.805867 30.355963 33.87995 28.964844 33.927734C28.975139 33.281828 29 32.663628 29 32C29 31.336372 28.97514 30.718155 28.964844 30.072266 z M 34.962891 30.472656C36.452978 30.621491 37.798127 30.797799 38.949219 31.001953C38.972517 31.33287 39 31.663059 39 32C39 32.336472 38.977465 32.667833 38.953125 32.998047C37.801918 33.20215 36.455698 33.376415 34.964844 33.525391C34.985895 33.022965 35 32.516135 35 32C35 31.48412 34.98144 30.97848 34.962891 30.472656 z M 11.353516 35.095703C12.483846 35.276651 13.805793 35.419912 15.173828 35.550781C15.269605 36.655614 15.405387 37.72947 15.585938 38.763672C14.316252 38.405495 13.152286 37.981998 12.121094 37.501953C11.793447 36.734194 11.540819 35.927153 11.353516 35.095703 z M 17.199219 35.726562C18.431964 35.814022 19.718618 35.883201 21.070312 35.927734C21.114959 37.286881 21.185483 38.579503 21.273438 39.818359C20.039225 39.697629 18.850646 39.520486 17.724609 39.291016C17.494794 38.160203 17.319798 36.96644 17.199219 35.726562 z M 23.072266 35.964844C23.718427 35.975169 24.336078 36 25 36C25.663628 36 26.281828 35.975139 26.927734 35.964844C26.879691 37.363522 26.8066 38.69842 26.712891 39.958984C26.148662 39.984262 25.578783 40 25 40C24.421202 40 23.851923 39.983902 23.287109 39.958984C23.1934 38.69842 23.120309 37.363522 23.072266 35.964844 z M 33 38.101562C33 38.101562 35.5625 41.597781 36.6875 43.050781C35.5625 44.503781 33 48 33 48C33 48 36.496219 45.437406 37.949219 44.316406C39.402219 45.438406 42.902344 48 42.902344 48C42.902344 48 40.336844 44.503781 39.214844 43.050781C40.335844 41.597781 42.902344 38.101563 42.902344 38.101562C42.902344 38.101562 39.402219 40.664156 37.949219 41.785156C36.496219 40.663156 33 38.101563 33 38.101562 z M 13.734375 40.296875C14.470697 40.544532 15.245838 40.761705 16.046875 40.958984C16.241959 41.754714 16.454094 42.529779 16.699219 43.261719C15.567575 42.426922 14.568739 41.428858 13.734375 40.296875 z M 18.234375 41.416016C19.270817 41.598351 20.341493 41.743297 21.449219 41.839844C21.579602 43.202612 21.722285 44.520126 21.902344 45.646484C21.071553 45.459211 20.265236 45.20631 19.498047 44.878906C19.018025 43.847636 18.591199 42.687472 18.234375 41.416016 z M 23.474609 41.962891C23.979801 41.981393 24.484779 42 25 42C25.514066 42 26.021894 41.989768 26.525391 41.970703C26.376682 43.457676 26.201622 44.800314 25.998047 45.949219C25.667275 45.972675 25.337022 46 25 46C24.663059 46 24.33287 45.972517 24.001953 45.949219C23.798023 44.798311 23.623468 43.452972 23.474609 41.962891 z"/></svg>