<svg version="1.1" xmlns="http://www.w3.org/2000/svg" xmlns:xlink="http://www.w3.org/1999/xlink" width="500" height="300" viewBox="0 0 600 1000" preserveAspectRatio="xMinYMin meet"><defs/><g><path fill="none" stroke="currentColor" paint-order="fill stroke markers" d=" M 20 438.5329151859468 L 21 440.35367004600676 L 22 442.17356343399155 L 23 443.9925544727875 L 24 445.81060230554874 L 25 447.627666096615 L 26 449.4437050324288 L 27 451.2586783224524 L 28 453.0725452000836 L 29 454.8852649235717 L 30 456.6967967769326 L 31 458.50710007086315 L 32 460.31613414365535 L 33 462.1238583621094 L 34 463.93023212244645 L 35 465.7352148512209 L 36 467.5387660062312 L 37 469.3408450774308 L 38 471.1414115878382 L 39 472.94042509444586 L 40 474.7378451891285 L 41 476.53363149955123 L 42 478.32774369007564 L 43 480.1201414626665 L 44 481.9107845577964 L 45 483.6996327553502 L 46 485.4866458755286 L 47 487.2717837797503 L 48 489.0550063715539 L 49 490.836273597498 L 50 492.6155454480617 L 51 494.39278195854234 L 52 496.16794320995376 L 53 497.9409893299228 L 54 499.7118804935846 L 55 501.4805769244777 L 56 503.24703889543684 L 57 505.01122672948566 L 58 506.7731008007278 L 59 508.53262153523696 L 60 510.28974941194576 L 61 512.0444449635334 L 62 513.7966687773123 L 63 515.5463814961131 L 64 517.2935438191689 L 65 519.0381165029979 L 66 520.780060362285 L 67 522.5193362707615 L 68 524.2559051620847 L 69 525.9897280307146 L 70 527.7207659327905 L 71 529.4489799870056 L 72 531.1743313754803 L 73 532.8967813446338 L 74 534.6162912060556 L 75 536.3328223373728 L 76 538.0463361831193 L 77 539.7567942556007 L 78 541.4641581357592 L 79 543.1683894740365 L 80 544.8694499912353 L 81 546.5673014793789 L 82 548.2619058025692 L 83 549.9532248978438 L 84 551.6412207760308 L 85 553.3258555226015 L 86 555.007091298523 L 87 556.6848903411075 L 88 558.3592149648601 L 89 560.0300275623265 L 90 561.6972906049363 L 91 563.360966643847 L 92 565.0210183107847 L 93 566.6774083188833 L 94 568.3300994635224 L 95 569.9790546231627 L 96 571.62423676018 L 97 573.2656089216966 L 98 574.9031342404121 L 99 576.5367759354308 L 100 578.1664973130883 L 101 579.7922617677751 L 102 581.4140327827598 L 103 583.0317739310084 L 104 584.6454488760028 L 105 586.2550213725569 L 106 587.8604552676312 L 107 589.4617145011439 L 108 591.0587631067818 L 109 592.6515652128077 L 110 594.2400850428659 L 111 595.8242869167861 L 112 597.4041352513852 L 113 598.9795945612657 L 114 600.5506294596131 L 115 602.1172046589911 L 116 603.6792849721337 L 117 605.2368353127359 L 118 606.7898206962415 L 119 608.338206240629 L 120 609.8819571671951 L 121 611.4210388013362 L 122 612.9554165733265 L 123 614.4850560190952 L 124 616.0099227810002 L 125 617.5299826086001 L 126 619.0452013594229 L 127 620.5555449997339 L 128 622.0609796052993 L 129 623.5614713621483 L 130 625.0569865673328 L 131 626.5474916296847 L 132 628.0329530705698 L 133 629.5133375246397 L 134 630.9886117405824 L 135 632.4587425818676 L 136 633.9236970274919 L 137 635.3834421727205 L 138 636.8379452298259 L 139 638.2871735288247 L 140 639.7310945182112 L 141 641.1696757656885 L 142 642.602884958897 L 143 644.0306899061407 L 144 645.4530585371093 L 145 646.8699589035995 L 146 648.2813591802317 L 147 649.6872276651658 L 148 651.0875327808124 L 149 652.4822430745422 L 150 653.8713272193936 L 151 655.2547540147743 L 152 656.6324923871643 L 153 658.004511390812 L 154 659.3707802084306 L 155 660.7312681518893 L 156 662.0859446629033 L 157 663.4347793137201 L 158 664.7777418078027 L 159 666.11480198051 L 160 667.4459297997748 L 161 668.7710953667779 L 162 670.0902689166197 L 163 671.4034208189894 L 164 672.7105215788295 L 165 674.0115418369992 L 166 675.3064523709331 L 167 676.5952240952986 L 168 677.8778280626481 L 169 679.1542354640694 L 170 680.4244176298334 L 171 681.688346030038 L 172 682.9459922752478 L 173 684.1973281171332 L 174 685.442325449104 L 175 686.6809563069411 L 176 687.9131928694242 L 177 689.1390074589575 L 178 690.3583725421904 L 179 691.5712607306365 L 180 692.7776447812888 L 181 693.9774975972314 L 182 695.1707922282483 L 183 696.3575018714282 L 184 697.537599871768 L 185 698.7110597227693 L 186 699.8778550670355 L 187 701.0379596968636 L 188 702.191347554832 L 189 703.3379927343865 L 190 704.477869480422 L 191 705.610952189861 L 192 706.7372154122288 L 193 707.8566338502251 L 194 708.9691823602915 L 195 710.0748359531777 L 196 711.1735697945016 L 197 712.2653592053075 L 198 713.3501796626205 L 199 714.4280067999971 L 200 715.4988164080728 L 201 716.5625844351057 L 202 717.6192869875166 L 203 718.6689003304259 L 204 719.7114008881867 L 205 720.7467652449143 L 206 721.7749701450118 L 207 722.7959924936931 L 208 723.8098093575014 L 209 724.8163979648239 L 210 725.8157357064039 L 211 726.8078001358481 L 212 727.792568970131 L 213 728.770020090096 L 214 729.7401315409506 L 215 730.7028815327617 L 216 731.6582484409431 L 217 732.6062108067424 L 218 733.5467473377225 L 219 734.4798369082398 L 220 735.4054585599195 L 221 736.3235915021248 L 222 737.2342151124255 L 223 738.1373089370604 L 224 739.0328526913968 L 225 739.920826260386 L 226 740.8012096990153 L 227 741.6739832327562 L 228 742.5391272580081 L 229 743.3966223425388 L 230 744.2464492259212 L 231 745.0885888199655 L 232 745.9230222091485 L 233 746.7497306510377 L 234 747.568695576713 L 235 748.3798985911836 L 236 749.1833214738008 L 237 749.9789461786675 L 238 750.7667548350439 L 239 751.5467297477483 L 240 752.3188533975547 L 241 753.0831084415868 L 242 753.8394777137071 L 243 754.587944224902 L 244 755.3284911636647 L 245 756.0611018963714 L 246 756.7857599676561 L 247 757.5024491007794 L 248 758.211153197994 L 249 758.9118563409074 L 250 759.6045427908381 L 251 760.2891969891698 L 252 760.965803557701 L 253 761.6343472989898 L 254 762.2948131966959 L 255 762.9471864159177 L 256 763.5914523035251 L 257 764.227596388489 L 258 764.8556043822066 L 259 765.4754621788215 L 260 766.087155855542 L 261 766.6906716729518 L 262 767.2859960753202 L 263 767.8731156909062 L 264 768.4520173322585 L 265 769.0226879965119 L 266 769.5851148656795 L 267 770.1392853069407 L 268 770.6851868729242 L 269 771.2228073019886 L 270 771.7521345184971 L 271 772.273156633089 L 272 772.7858619429469 L 273 773.2902389320593 L 274 773.786276271479 L 275 774.2739628195785 L 276 774.7532876222992 L 277 775.2242399133982 L 278 775.6868091146896 L 279 776.1409848362825 L 280 776.5867568768142 L 281 777.0241152236792 L 282 777.4530500532542 L 283 777.873551731119 L 284 778.2856108122728 L 285 778.6892180413456 L 286 779.0843643528073 L 287 779.4710408711705 L 288 779.8492389111902 L 289 780.2189499780588 L 290 780.5801657675969 L 291 780.9328781664394 L 292 781.2770792522188 L 293 781.6127612937419 L 294 781.9399167511642 L 295 782.2585382761595 L 296 782.5686187120841 L 297 782.870151094138 L 298 783.1631286495216 L 299 783.4475447975874 L 300 783.7233931499877 L 301 783.9906675108191 L 302 784.2493618767601 L 303 784.4994704372073 L 304 784.7409875744052 L 305 784.9739078635723 L 306 785.1982260730239 L 307 785.4139371642882 L 308 785.6210362922207 L 309 785.819518805112 L 310 786.0093802447934 L 311 786.1906163467361 L 312 786.3632230401474 L 313 786.5271964480619 L 314 786.682532887429 L 315 786.8292288691954 L 316 786.967281098383 L 317 787.0966864741637 L 318 787.2174420899287 L 319 787.3295452333537 L 320 787.4329933864599 L 321 787.5277842256705 L 322 787.6139156218632 L 323 787.6913856404174 L 324 787.7601925412583 L 325 787.8203347788957 L 326 787.8718110024587 L 327 787.9146200557259 L 328 787.9487609771516 L 329 787.9742329998876 L 330 787.9910355517999 L 331 787.9991682554817 L 332 787.9986309282624 L 333 787.989423582211 L 334 787.971546424136 L 335 787.9449998555813 L 336 787.9097844728163 L 337 787.8659010668233 L 338 787.8133506232791 L 339 787.7521343225335 L 340 787.6822535395822 L 341 787.6037098440361 L 342 787.5165050000862 L 343 787.4206409664642 L 344 787.3161198963976 L 345 787.2029441375623 L 346 787.0811162320294 L 347 786.9506389162082 L 348 786.8115151207846 L 349 786.6637479706557 L 350 786.5073407848588 L 351 786.342297076498 L 352 786.1686205526642 L 353 785.9863151143522 L 354 785.7953848563736 L 355 785.5958340672641 L 356 785.3876672291877 L 357 785.1708890178354 L 358 784.9455043023208 L 359 784.7115181450705 L 360 784.4689358017104 L 361 784.2177627209476 L 362 783.9580045444479 L 363 783.6896671067099 L 364 783.4127564349321 L 365 783.12727874888 L 366 782.8332404607443 L 367 782.5306481749977 L 368 782.2195086882471 L 369 781.8998289890797 L 370 781.5716162579072 L 371 781.2348778668037 L 372 780.8896213793406 L 373 780.5358545504166 L 374 780.1735853260833 L 375 779.802821843367 L 376 779.4235724300858 L 377 779.0358456046624 L 378 778.6396500759332 L 379 778.2349947429523 L 380 777.8218886947917 L 381 777.4003412103373 L 382 776.9703617580799 L 383 776.5319599959038 L 384 776.0851457708684 L 385 775.629929118988 L 386 775.1663202650059 L 387 774.694329622165 L 388 774.2139677919739 L 389 773.7252455639684 L 390 773.2281739154697 L 391 772.7227640113375 L 392 772.2090272037192 L 393 771.6869750317953 L 394 771.1566192215196 L 395 770.6179716853561 L 396 770.0710445220118 L 397 769.5158500161647 L 398 768.9524006381872 L 399 768.3807090438672 L 400 767.800788074123 L 401 767.2126507547151 L 402 766.6163102959537 L 403 766.0117800924018 L 404 765.3990737225745 L 405 764.7782049486341 L 406 764.1491877160806 L 407 763.5120361534391 L 408 762.8667645719418 L 409 762.2133874652066 L 410 761.551919508912 L 411 760.8823755604675 L 412 760.2047706586794 L 413 759.5191200234132 L 414 758.8254390552516 L 415 758.1237433351494 L 416 757.4140486240819 L 417 756.6963708626931 L 418 755.9707261709352 L 419 755.2371308477088 L 420 754.495601370495 L 421 753.7461543949867 L 422 752.9888067547131 L 423 752.2235754606631 L 424 751.4504777009022 L 425 750.6695308401863 L 426 749.8807524195727 L 427 749.0841601560251 L 428 748.2797719420159 L 429 747.467605845125 L 430 746.6476801076329 L 431 745.8200131461115 L 432 744.9846235510106 L 433 744.1415300862402 L 434 743.2907516887485 L 435 742.4323074680979 L 436 741.5662167060339 L 437 740.6924988560538 L 438 739.8111735429688 L 439 738.922260562463 L 440 738.0257798806495 L 441 737.1217516336216 L 442 736.210196127 L 443 735.2911338354779 L 444 734.3645854023599 L 445 733.4305716390991 L 446 732.4891135248291 L 447 731.5402322058934 L 448 730.5839489953698 L 449 729.6202853725924 L 450 728.649262982668 L 451 727.6709036359914 L 452 726.6852293077545 L 453 725.6922621374524 L 454 724.6920244283879 L 455 723.6845386471679 L 456 722.6698274232012 L 457 721.6479135481891 L 458 720.618819975613 L 459 719.5825698202199 L 460 718.5391863575028 L 461 717.4886930231775 L 462 716.4311134126566 L 463 715.3664712805198 L 464 714.2947905399794 L 465 713.2160952623444 L 466 712.1304096764788 L 467 711.0377581682578 L 468 709.9381652800203 L 469 708.831655710017 L 470 707.7182543118563 L 471 706.5979860939462 L 472 705.4708762189313 L 473 704.3369500031291 L 474 703.1962329159608 L 475 702.0487505793787 L 476 700.8945287672916 L 477 699.7335934049856 L 478 698.5659705685412 L 479 697.3916864842483 L 480 696.2107675280167 L 481 695.0232402247841 L 482 693.82913124792 L 483 692.6284674186265 L 484 691.421275705336 L 485 690.2075832231056 L 486 688.9874172330078 L 487 687.7608051415184 L 488 686.5277744999007 L 489 685.2883530035868 L 490 684.0425684915556 L 491 682.7904489457073 L 492 681.532022490235 L 493 680.2673173909931 L 494 678.9963620548621 L 495 677.7191850291108 L 496 676.4358150007554 L 497 675.1462807959142 L 498 673.8506113791611 L 499 672.5488358528748 L 500 671.2409834565844 L 501 669.9270835663137 L 502 668.6071656939208 L 503 667.2812594864349 L 504 665.9493947253916 L 505 664.6116013261624 L 506 663.2679093372838 L 507 661.9183489397824 L 508 660.562950446496 L 509 659.2017443013943 L 510 657.8347610788938 L 511 656.4620314831712 L 512 655.0835863474746 L 513 653.6994566334299 L 514 652.3096734303463 L 515 650.9142679545168 L 516 649.5132715485188 L 517 648.1067156805082 L 518 646.6946319435139 L 519 645.2770520547275 L 520 643.8540078547915 L 521 642.4255313070835 L 522 640.9916544969985 L 523 639.5524096312283 L 524 638.1078290370383 L 525 636.6579451615405 L 526 635.2027905709658 L 527 633.7423979499323 L 528 632.2768001007101 L 529 630.8060299424862 L 530 629.3301205106234 L 531 627.8491049559196 L 532 626.363016543863 L 533 624.8718886538836 L 534 623.3757547786056 L 535 621.8746485230932 L 536 620.368603604097 L 537 618.8576538492957 L 538 617.3418331965377 L 539 615.8211756930771 L 540 614.2957154948103 L 541 612.7654868655081 L 542 611.2305241760465 L 543 609.6908619036344 L 544 608.1465346310389 L 545 606.5975770458097 L 546 605.0440239394987 L 547 603.485910206879 L 548 601.9232708451613 L 549 600.3561409532077 L 550 598.7845557307433 L 551 597.2085504775653 L 552 595.6281605927508 L 553 594.043421573861 L 554 592.4543690161444 L 555 590.8610386117367 L 556 589.2634661488598 L 557 587.6616875110178 L 558 586.05573867619 L 559 584.4456557160244 L 560 582.8314747950265 L 561 581.2132321697469 L 562 579.5909641879675 L 563 577.9647072878853 L 564 576.3344979972921 L 565 574.700372932757 L 566 573.062368798801 L 567 571.4205223870748 L 568 569.7748705755314 L 569 568.1254503275974 L 570 566.4722986913437 L 571 564.815452798653 L 572 563.1549498643853 L 573 561.4908271855428 L 574 559.8231221404316 L 575 558.1518721878219 L 576 556.4771148661076 L 577 554.7988877924626 L 578 553.1172286619949 L 579 551.432175246902 L 580 549.7437653956207 L 581 548.0520370319778 L 582 546.357028154338 L 583 544.6587768347505 L 584 542.957321218094 L 585 541.2526995212197 L 586 539.5449500320929 L 587 537.8341111089333 L 588 536.1202211793529 L 589 534.4033187394932 L 590 532.6834423531611 L 591 530.9606306509613 L 592 529.2349223294297 L 593 527.5063561501643 L 594 525.7749709389535 L 595 524.0408055849055 L 596 522.3038990395737 L 597 520.5642903160817 L 598 518.8220184882483 L 599 517.0771226897085 L 600 515.3296421130349 L 601 513.5796160088577 L 602 511.827083684983 L 603 510.07208450550934 L 604 508.31465788994467 L 605 506.55484331231935 L 606 504.7926803003011 L 607 503.0282084343063 L 608 501.26146734661074 L 609 499.4924967204603 L 610 497.721336289179 L 611 495.9480258352763 L 612 494.17260518955436 L 613 492.3951142302128 L 614 490.61559288195286 L 615 488.8340811150813 L 616 487.05061894461176 L 617 485.26524642936664 L 618 483.47800367107743 L 619 481.68893081348295 L 620 479.8980680414289 L 621 478.1054555799648 L 622 476.31113369343984 L 623 474.5151426845995 L 624 472.7175228936801 L 625 470.9183146975017 L 626 469.11755850856264 L 627 467.3152947741311 L 628 465.511563975336 L 629 463.7064066262593 L 630 461.8998632730243 L 631 460.09197449288615 L 632 458.28278089332014 L 633 456.4723231111087 L 634 454.6606418114303 L 635 452.8477776869448 L 636 451.0337714568795 L 637 449.21866386611526 L 638 447.40249568427095 L 639 445.58530770478717 L 640 443.76714074401104 L 641 441.94803564027825 L 642 440.1280332529969 L 643 438.3071744617291 L 644 436.4855001652725 L 645 434.6630512807426 L 646 432.8398687426528 L 647 431.0159935019952 L 648 429.19146652532106 L 649 427.36632879382057 L 650 425.5406213024019 L 651 423.714385058771 L 652 421.88766108251036 L 653 420.0604904041571 L 654 418.23291406428257 L 655 416.40497311256894 L 656 414.57670860688864 L 657 412.7481616123816 L 658 410.91937320053205 L 659 409.0903844482475 L 660 407.2612364369354 L 661 405.4319702515796 L 662 403.6026269798191 L 663 401.77324771102406 L 664 399.94387353537286 L 665 398.1145455429301 L 666 396.2853048227224 L 667 394.4561924618166 L 668 392.62724954439653 L 669 390.7985171508394 L 670 388.9700363567945 L 671 387.14184823225975 L 672 385.31399384065884 L 673 383.48651423792 L 674 381.65945047155316 L 675 379.8328435797274 L 676 378.0067345903507 L 677 376.18116452014704 L 678 374.3561743737354 L 679 372.53180514270963 L 680 370.70809780471615 L 681 368.88509332253506 L 682 367.0628326431594 L 683 365.241356696875 L 684 363.42070639634204 L 685 361.6009226356756 L 686 359.7820462895268 L 687 357.96411821216554 L 688 356.1471792365623 L 689 354.33127017347067 L 690 352.51643181051173 L 691 350.7027049112567 L 692 348.8901302143123 L 693 347.07874843240535 L 694 345.2686002514679 L 695 343.459726329724 L 696 341.6521672967765 L 697 339.8459637526936 L 698 338.04115626709785 L 699 336.2377853782547 L 700 334.4358915921614 L 701 332.63551538163784 L 702 330.8366971854175 L 703 329.03947740723817 L 704 327.24389641493593 L 705 325.449994539537 L 706 323.65781207435293 L 707 321.86738927407515 L 708 320.0787663538704 L 709 318.2919834884781 L 710 316.5070808113079 L 711 314.72409841353755 L 712 312.9430763432132 L 713 311.16405460434976 L 714 309.38707315603153 L 715 307.612171911516 L 716 305.83939073733603 L 717 304.06876945240543 L 718 302.3003478271242 L 719 300.53416558248466 L 720 298.7702623891804 L 721 297.00867786671455 L 722 295.24945158250944 L 723 293.4926230510188 L 724 291.73823173284 L 725 289.9863170338269 L 726 288.2369183042058 L 727 286.49007483769117 L 728 284.7458258706026 L 729 283.0042105809845 L 730 281.2652680877249 L 731 279.52903744967807 L 732 277.7955576647863 L 733 276.064867669204 L 734 274.33700633642366 L 735 272.6120124764026 L 736 270.88992483469053 L 737 269.1707820915601 L 738 267.45462286113803 L 739 265.74148569053705 L 740 264.03140905899113 L 741 262.3244313769901 L 742 260.62059098541795 L 743 258.919926154691 L 744 257.22247508389813 L 745 255.52827589994348 L 746 253.83736665668977 L 747 252.1497853341029 L 748 250.46556983739998 L 749 248.78475799619744 L 750 247.10738756366075 L 751 245.4334962156576 L 752 243.76312154991052 L 753 242.0963010851532 L 754 240.4330722602876 L 755 238.7734724335423 L 756 237.1175388816346 L 757 235.46530879893248 L 758 233.81681929661892 L 759 232.17210740185917 L 760 230.53121005696858 L 761 228.89416411858247 L 762 227.26100635682906 L 763 225.63177345450333 L 764 224.00650200624236 L 765 222.38522851770458 L 766 220.7679894047486 L 767 219.15482099261627 L 768 217.54575951511634 L 769 215.94084111381014 L 770 214.34010183720073 L 771 212.74357763992273 L 772 211.1513043819342 L 773 209.5633178277123 L 774 207.97965364544922 L 775 206.4003474062509 L 776 204.82543458333888 L 777 203.2549505512524 L 778 201.6889305850549 L 779 200.1274098595412 L 780 198.5704234484471 L 781 197.01800632366232 L 782 195.4701933544446 L 783 193.92701930663614 L 784 192.38851884188355 L 785 190.85472651685865 L 786 189.32567678248228 L 787 187.80140398315086 L 788 186.28194235596501 L 789 184.76732602995978 L 790 183.25758902533917 L 791 181.75276525271096 L 792 180.2528885123258 L 793 178.75799249331786 L 794 177.26811077294744 L 795 175.78327681584778 L 796 174.30352397327306 L 797 172.82888548234868 L 798 171.35939446532564 L 799 169.8950839288361 L 800 168.4359867631518 L 801 166.98213574144583 L 802 165.533563519056 L 803 164.09030263275184 L 804 162.6523855000035 L 805 161.21984441825336 L 806 159.79271156419114 L 807 158.37101899303104 L 808 156.95479863779113 L 809 155.544082308577 L 810 154.13890169186675 L 811 152.73928834979912 L 812 151.345273719465 L 813 149.9568891122013 L 814 148.57416571288704 L 815 147.19713457924368 L 816 145.82582664113687 L 817 144.4602726998823 L 818 143.10050342755358 L 819 141.7465493662931 L 820 140.39844092762627 L 821 139.0562083917789 L 822 137.71988190699568 L 823 136.38949148886462 L 824 135.06506701964207 L 825 133.74663824758107 L 826 132.43423478626448 L 827 131.12788611393825 L 828 129.82762157285066 L 829 128.5334703685926 L 830 127.24546156944126 L 831 125.96362410570816 L 832 124.68798676908858 L 833 123.41857821201478 L 834 122.15542694701315 L 835 120.89856134606345 L 836 119.64800963996089 L 837 118.40379991768305 L 838 117.16596012575849 L 839 115.93451806763875 L 840 114.70950140307457 L 841 113.49093764749381 L 842 112.27885417138407 L 843 111.07327819967765 L 844 109.87423681113972 L 845 108.68175693776078 L 846 107.49586536415137 L 847 106.31658872694055 L 848 105.14395351417687 L 849 103.97798606473464 L 850 102.81871256772178 L 851 101.66615906189134 L 852 100.52035143505691 L 853 99.38131542351124 L 854 98.24907661144744 L 855 97.1236604303856 L 856 96.00509215860046 L 857 94.89339692055415 L 858 93.78859968633208 L 859 92.6907252710808 L 860 91.59979833445243 L 861 90.51584338004977 L 862 89.43888475487574 L 863 88.36894664878719 L 864 87.3060530939511 L 865 86.25022796430454 L 866 85.20149497501916 L 867 84.15987768196823 L 868 83.12539948119712 L 869 82.09808360839861 L 870 81.07795313838972 L 871 80.06503098459501 L 872 79.0593398985306 L 873 78.06090246929404 L 874 77.06974112305625 L 875 76.08587812255848 L 876 75.10933556661115 L 877 74.14013538959887 L 878 73.17829936098695 L 879 72.22384908483247 L 880 71.2768059992992 L 881 70.33719137617629 L 882 69.40502632039949 L 883 68.48033176957853 L 884 67.56312849352577 L 885 66.65343709379022 L 886 65.75127800319456 L 887 64.85667148537601 L 888 63.96963763433172 L 889 63.0901963739671 L 890 62.218367457648355 L 891 61.35417046775859 L 892 60.497624815258575 L 893 59.648749739249695 L 894 58.80756430654293 L 895 57.97408741123019 L 896 57.14833777425952 L 897 56.33033394301526 L 898 55.52009429090077 L 899 54.71763701692646 L 900 53.92298014530047 L 901 53.1361415250239 L 902 52.357138829490395 L 903 51.58598955608852 L 904 50.822711025808815 L 905 50.06732038285526 L 906 49.31983459425987 L 907 48.58027044950154 L 908 47.84864456012906 L 909 47.12497335938758 L 910 46.40927310185032 L 911 45.70155986305281 L 912 45.001849539132024 L 913 44.31015784646934 L 914 43.62650032133757 L 915 42.9508923195516 L 916 42.28334901612425 L 917 41.62388540492469 L 918 40.9725162983421 L 919 40.32925632695287 L 920 39.694119939191694 L 921 39.06712140102741 L 922 38.44827479564259 L 923 37.83759402311671 L 924 37.23509280011467 L 925 36.64078465957806 L 926 36.05468295042141 L 927 35.47680083723259 L 928 34.90715129997676 L 929 34.34574713370506 L 930 33.792600948267136 L 931 33.24772516802801 L 932 32.71113203158859 L 933 32.18283359151144 L 934 31.662841714049478 L 935 31.151168078879948 L 936 30.64782417884163 L 937 30.15282131967689 L 938 29.666170619777745 L 939 29.18788300993623 L 940 28.7179692330987 L 941 28.256439844124657 L 942 27.80330520954942 L 943 27.35857550735176 L 944 26.922260726724687 L 945 26.494370667851683 L 946 26.07491494168619 L 947 25.66390296973583 L 948 25.261343983850793 L 949 24.867247026016457 L 950 24.481620948150407 L 951 24.104474411903368 L 952 23.73581588846497 L 953 23.375653658373324 L 954 23.02399581132869 L 955 22.68085024601254 L 956 22.346224669909418 L 957 22.020126599134187 L 958 21.702563358263262 L 959 21.393542080169595 L 960 21.093069705863115 L 961 20.80115298433452 L 962 20.51779847240357 L 963 20.243012534572017 L 964 19.976801342880606 L 965 19.719170876770193 L 966 19.47012692294794 L 967 19.229675075256864 L 968 18.997820734550544 L 969 18.774569108571427 L 970 18.55992521183424 L 971 18.3538938655131 L 972 18.15647969733351 L 973 17.967687141467877 L 974 17.78752043843656 L 975 17.6159836350123 L 976 17.453080584129168 L 977 17.298814944796334 L 978 17.15319018201575 L 979 17.016209566704163 L 980 16.88787617562008 L 981 16.768192891294234 L 982 16.65716240196491 L 983 16.55478720151774 L 984 16.461069589429655 L 985 16.376011670716935 L 986 16.299615355888477 L 987 16.23188236090232 L 988 16.17281420712743 L 989 16.122412221309503 L 990 16.0806775355411 L 991 16.047611087236078 L 992 16.023213619108958 L 993 16.007485679157696 L 994 16.000427620651806 L 995 16.002039602124285 L 996 16.01232158736792 L 997 16.03127334543632 L 998 16.058894450648893 L 999 16.095184282600712 L 1000 16.14014202617608 L 1001 16.193766671566948 L 1002 16.256057014295834 L 1003 16.327011655242643 L 1004 16.406629000676162 L 1005 16.494907262289814 L 1006 16.591844457241848 L 1007 16.697438408199957 L 1008 16.811686743390055 L 1009 16.93458689664959 L 1010 17.066136107485363 L 1011 17.206331421135076 L 1012 17.355169688634305 L 1013 17.5126475668867 L 1014 17.678761518739407 L 1015 17.85350781306238 L 1016 18.036882524832208 L 1017 18.22888153522024 L 1018 18.429500531685278 L 1019 18.638735008070114 L 1020 18.856580264703098 L 1021 19.08303140850336 L 1022 19.31808335309114 L 1023 19.56173081890148 L 1024 19.813968333303364 L 1025 20.074790230722215 L 1026 20.34419065276751 L 1027 20.62216354836403 L 1028 20.908702673887944 L 1029 21.203801593307105 L 1030 21.50745367832542 L 1031 21.819652108531955 L 1032 22.140389871554078 L 1033 22.469659763214736 L 1034 22.80745438769452 L 1035 23.15376615769776 L 1036 23.50858729462277 L 1037 23.871909828736932 L 1038 24.24372559935523 L 1039 24.62402625502392 L 1040 25.012803253707887 L 1041 25.41004786298248 L 1042 25.815751160230093 L 1043 26.229904032840125 L 1044 26.652497178413682 L 1045 27.083521104972817 L 1046 27.52296613117329 L 1047 27.970822386522457 L 1048 28.427079811601004 L 1049 28.891728158288288 L 1050 29.364756989993168 L 1051 29.846155681888035 L 1052 30.33591342114778 L 1053 30.834019207192284 L 1054 31.340461851933924 L 1055 31.855229980028582 L 1056 32.37831202913105 L 1057 32.90969625015521 L 1058 33.4493707075373 L 1059 33.99732327950471 L 1060 34.55354165834757 L 1061 35.118013350695605 L 1062 35.690725677798696 L 1063 36.27166577581164 L 1064 36.860820596082704 L 1065 37.458176905447715 L 1066 38.063721286526174 L 1067 38.67744013802326 L 1068 39.29931967503512 L 1069 39.92934592935853 L 1070 40.56750474980487 L 1071 41.21378180251759 L 1072 41.868162571294306 L 1073 42.53063235791308 L 1074 43.20117628246214 L 1075 43.879779283674395 L 1076 44.566426119266 L 1077 45.2611013662779 L 1078 45.96378942142309 L 1079 46.674474501436464 L 1080 47.39314064342966 L 1081 48.11977170524989 L 1082 48.854351365841694 L 1083 49.59686312561428 L 1084 50.34729030681166 L 1085 51.105616053887616 L 1086 51.87182333388381 L 1087 52.645894936813306 L 1088 53.42781347604591 L 1089 54.21756138869955 L 1090 55.01512093603429 L 1091 55.820474203851234 L 1092 56.63360310289431 L 1093 57.45448936925749 L 1094 58.283114564793834 L 1095 59.11946007753045 L 1096 59.963507122086355 L 1097 60.81523674009429 L 1098 61.674629800626974 L 1099 62.541667000626205 L 1100 63.41632886533665 L 1101 64.29859574874342 L 1102 65.18844783401346 L 1103 66.08586513394005 L 1104 66.99082749139262 L 1105 67.90331457976879 L 1106 68.82330590345111 L 1107 69.75078079826761 L 1108 70.68571843195565 L 1109 71.62809780463044 L 1110 72.5778977492559 L 1111 73.5350969321205 L 1112 74.49967385331661 L 1113 75.47160684722309 L 1114 76.45087408299202 L 1115 77.43745356503956 L 1116 78.43132313353902 L 1117 79.43246046491942 L 1118 80.44084307236636 L 1119 81.45644830632739 L 1120 82.47925335502117 L 1121 83.50923524494885 L 1122 84.5463708414108 L 1123 85.59063684902605 L 1124 86.6420098122556 L 1125 87.70046611592903 L 1126 88.76598198577562 L 1127 89.83853348895718 L 1128 90.91809653460678 L 1129 92.00464687436903 L 1130 93.09816010294497 L 1131 94.19861165864097 L 1132 95.30597682391908 L 1133 96.42023072595322 L 1134 97.54134833718746 L 1135 98.66930447589829 L 1136 99.80407380676002 L 1137 100.94563084141447 L 1138 102.09394993904266 L 1139 103.24900530694123 L 1140 104.41077100110141 L 1141 105.5792209267924 L 1142 106.75432883914652 L 1143 107.9360683437501 L 1144 109.12441289723478 L 1145 110.31933580787455 L 1146 111.52081023618541 L 1147 112.72880919552756 L 1148 113.94330555271256 L 1149 115.16427202861166 L 1150 116.39168119876922 L 1151 117.62550549401846 L 1152 118.86571720110072 L 1153 120.11228846328794 L 1154 121.36519128100889 L 1155 122.62439751247689 L 1156 123.88987887432296 L 1157 125.16160694223049 L 1158 126.43955315157399 L 1159 127.72368879806112 L 1160 129.0139850383763 L 1161 130.3104128908294 L 1162 131.61294323600657 L 1163 132.9215468174242 L 1164 134.23619424218577 L 1165 135.55685598164325 L 1166 136.88350237205867 L 1167 138.21610361527132 L 1168 139.55462977936725 L 1169 140.89905079935068 L 1170 142.24933647782092 L 1171 143.60545648564874 L 1172 144.96738036265867 L 1173 146.3350775183131 L 1174 147.70851723239915 L 1175 149.08766865571855 L 1176 150.47250081078172 L 1177 151.86298259250162 L 1178 153.25908276889382 L 1179 154.66076998177775 L 1180 156.06801274748037 L 1181 157.48077945754488 L 1182 158.89903837943876 L 1183 160.32275765726789 L 1184 161.75190531249143 L 1185 163.1864492446404 L 1186 164.6263572320383 L 1187 166.071596932526 L 1188 167.52213588418647 L 1189 168.97794150607507 L 1190 170.43898109895102 L 1191 171.905221846012 L 1192 173.37663081363084 L 1193 174.85317495209642 L 1194 176.3348210963543 L 1195 177.82153596675286 L 1196 179.31328616979047 L 1197 180.8100381988652 L 1198 182.3117584350286 L 1199 183.81841314773916 L 1200 185.3299684956212 L 1201 186.8463905272243 L 1202 188.36764518178632 L 1203 189.8936982899979 L 1204 191.4245155747713 L 1205 192.96006265200842 L 1206 194.50030503137418 L 1207 196.0452081170713 L 1208 197.59473720861664 L 1209 199.14885750162205 L 1210 200.70753408857428 L 1211 202.27073195962024 L 1212 203.8384160033531 L 1213 205.41055100760082 L 1214 206.9871016602169 L 1215 208.56803254987466 L 1216 210.15330816686088 L 1217 211.74289290387446 L 1218 213.3367510568261 L 1219 214.93484682563982 L 1220 216.53714431505827 L 1221 218.14360753544725 L 1222 219.75420040360532 L 1223 221.36888674357388 L 1224 222.9876302874497 L 1225 224.61039467619935 L 1226 226.23714346047703 L 1227 227.86784010144146 L 1228 229.50244797157782 L 1229 231.14093035552008 L 1230 232.78325045087539 L 1231 234.429371369052 L 1232 236.07925613608592 L 1233 237.73286769347266 L 1234 239.3901688989993 L 1235 241.05112252757868 L 1236 242.71569127208534 L 1237 244.38383774419466 L 1238 246.05552447522075 L 1239 247.7307139169594 L 1240 249.4093684425309 L 1241 251.09145034722562 L 1242 252.7769218493501 L 1243 254.4657450910773 L 1244 256.1578821392949 L 1245 257.85329498645854 L 1246 259.5519455514453 L 1247 261.25379568040876 L 1248 262.958807147637 L 1249 264.6669416564096 L 1250 266.3781608398591 L 1251 268.0924262618321 L 1252 269.809699417753 L 1253 271.52994173548825 L 1254 273.2531145762142 L 1255 274.9791792352829 L 1256 276.7080969430929 L 1257 278.4398288659596 L 1258 280.17433610698725 L 1259 281.9115797069438 L 1260 283.6515206451344 L 1261 285.3941198402786 L 1262 287.1393381513883 L 1263 288.8871363786467 L 1264 290.63747526428847 L 1265 292.3903154934828 L 1266 294.1456176952146 L 1267 295.9033424431701 L 1268 297.6634502566221 L 1269 299.42590160131635 L 1270 301.19065689036074 L 1271 302.95767648511304 L 1272 304.72692069607183 L 1273 306.4983497837681 L 1274 308.2719239596578 L 1275 310.04760338701504 L 1276 311.8253481818284 L 1277 313.60511841369464 L 1278 315.386874106717 L 1279 317.17057524040274 L 1280 318.95618175056165 L 1281 320.74365353020744 L 1282 322.5329504304564 L 1283 324.32403226143083 L 1284 326.116858793161 L 1285 327.91138975648903 L 1286 329.70758484397317 L 1287 331.5054037107941 L 1288 333.3048059756596 L 1289 335.1057512217124 L 1290 336.90819899743815 L 1291 338.71210881757327 L 1292 340.51744016401585 L 1293 342.32415248673385 L 1294 344.13220520467684 L 1295 345.94155770668755 L 1296 347.75216935241394 L 1297 349.5639994732216 L 1298 351.37700737310865 L 1299 353.19115232961775 L 1300 355.0063935947523 L 1301 356.822690395891 L 1302 358.64000193670415 L 1303 360.4582873980691 L 1304 362.27750593898884 L 1305 364.09761669750725 L 1306 365.91857879162814 L 1307 367.74035132023323 L 1308 369.5628933640006 L 1309 371.38616398632496 L 1310 373.21012223423526 L 1311 375.0347271393158 L 1312 376.85993771862627 L 1313 378.6857129756219 L 1314 380.5120119010745 L 1315 382.33879347399443 L 1316 384.1660166625502 L 1317 385.9936404249915 L 1318 387.8216237105705 L 1319 389.6499254604638 L 1320 391.4785046086958 L 1321 393.30732008305927 L 1322 395.136330806039 L 1323 396.9654956957344 L 1324 398.7947736667819 L 1325 400.62412363127794 L 1326 402.4535044997026 L 1327 404.282875181841 L 1328 406.1121945877074 L 1329 407.9414216284676 L 1330 409.7705152173619 L 1331 411.599434270629 L 1332 413.4281377084269 L 1333 415.25658445575704 L 1334 417.0847334433863 L 1335 418.91254360876974 L 1336 420.7399738969723 L 1337 422.5669832615926 L 1338 424.39353066568276 L 1339 426.2195750826713 L 1340 428.0450754972846 L 1341 429.8699909064676 L 1342 431.69428032030623 L 1343 433.51790276294616 L 1344 435.3408172735143 L 1345 437.1629829070386 L 1346 438.98435873536783 L 1347 440.8049038480904 L 1348 442.6245773534547 L 1349 444.4433383792855 L 1350 446.26114607390315 L 1351 448.0779596070414 L 1352 449.89373817076387 L 1353 451.70844098038066 L 1354 453.52202727536564 L 1355 455.3344563202701 L 1356 457.14568740563874 L 1357 458.9556798489242 L 1358 460.7643929954002 L 1359 462.571786219076 L 1360 464.3778189236071 L 1361 466.18245054320823 L 1362 467.98564054356433 L 1363 469.78734842274093 L 1364 471.5875337120935 L 1365 473.38615597717785 L 1366 475.1831748186563 L 1367 476.9785498732064 L 1368 478.7722408144273 L 1369 480.5642073537451 L 1370 482.3544092413191 L 1371 484.142806266944 L 1372 485.92935826095425 L 1373 487.7140250951262 L 1374 489.49676668357904 L 1375 491.2775429836753 L 1376 493.0563139969213 L 1377 494.8330397698636 L 1378 496.6076803949879 L 1379 498.38019601161477 L 1380 500.1505468067951 L 1381 501.9186930162051 L 1382 503.68459492503814 L 1383 505.4482128688975 L 1384 507.2095072346872 L 1385 508.9684384615019 L 1386 510.7249670415149 L 1387 512.4790535208672 L 1388 514.2306585005513 L 1389 515.9797426372976 L 1390 517.7262666444581 L 1391 519.470191292888 L 1392 521.2114774118284 L 1393 522.9500858897841 L 1394 524.6859776754038 L 1395 526.4191137783561 L 1396 528.1494552702057 L 1397 529.8769632852882 L 1398 531.6015990215826 L 1399 533.323323741583 L 1400 535.0420987731679 L 1401 536.7578855104705 L 1402 538.4706454147444 L 1403 540.1803400152291 L 1404 541.8869309100166 L 1405 543.5903797669101 L 1406 545.2906483242879 L 1407 546.9876983919615 L 1408 548.6814918520338 L 1409 550.3719906597557 L 1410 552.0591568443799 L 1411 553.7429525100138 L 1412 555.4233398364711 L 1413 557.100281080121 L 1414 558.7737385747362 L 1415 560.4436747323391 L 1416 562.1100520440456 L 1417 563.7728330809074 L 1418 565.4319804947537 L 1419 567.0874570190288 L 1420 568.7392254696307 L 1421 570.3872487457448 L 1422 572.0314898306781 L 1423 573.6719117926903 L 1424 575.3084777858235 L 1425 576.9411510507296 L 1426 578.5698949154965 L 1427 580.1946727964712 L 1428 581.8154481990816 L 1429 583.4321847186566 L 1430 585.0448460412429 L 1431 586.6533959444223 L 1432 588.2577982981236 L 1433 589.8580170654351 L 1434 591.4540163034135 L 1435 593.0457601638916 L 1436 594.6332128942831 L 1437 596.2163388383871 L 1438 597.7951024371862 L 1439 599.369468229648 L 1440 600.9394008535196 L 1441 602.5048650461229 L 1442 604.0658256451471 L 1443 605.6222475894372 L 1444 607.1740959197818 L 1445 608.7213357796998 L 1446 610.2639324162208 L 1447 611.8018511806679 L 1448 613.3350575294355 L 1449 614.8635170247642 L 1450 616.3871953355149 L 1451 617.9060582379403 L 1452 619.4200716164532 L 1453 620.9292014643925 L 1454 622.4334138847883 L 1455 623.9326750911214 L 1456 625.4269514080835 L 1457 626.9162092723334 L 1458 628.4004152332502 L 1459 629.8795359536862 L 1460 631.3535382107134 L 1461 632.8223888963719 L 1462 634.2860550184121 L 1463 635.7445037010364 L 1464 637.1977021856375 L 1465 638.6456178315345 L 1466 640.0882181167057 L 1467 641.5254706385185 L 1468 642.9573431144588 L 1469 644.383803382854 L 1470 645.8048194035979 L 1471 647.220359258868 L 1472 648.630391153844 L 1473 650.0348834174208 L 1474 651.433804502921 L 1475 652.8271229888023 L 1476 654.214807579365 L 1477 655.5968271054526 L 1478 656.9731505251538 L 1479 658.3437469244989 L 1480 659.7085855181542 L 1481 661.0676356501142 L 1482 662.420866794389 L 1483 663.7682485556907 L 1484 665.109750670116 L 1485 666.4453430058259 L 1486 667.7749955637223 L 1487 669.0986784781228 L 1488 670.41636201743 L 1489 671.7280165848001 L 1490 673.0336127188084 L 1491 674.333121094109 L 1492 675.6265125220964 L 1493 676.9137579515582 L 1494 678.1948284693294 L 1495 679.4696953009413 L 1496 680.7383298112682 L 1497 682.0007035051692 L 1498 683.2567880281309 L 1499 684.5065551669013 L 1500 685.7499768501254 L 1501 686.987025148975 L 1502 688.2176722777763 L 1503 689.441890594634 L 1504 690.6596526020519 L 1505 691.8709309475508 L 1506 693.0756984242828 L 1507 694.2739279716423 L 1508 695.4655926758735 L 1509 696.6506657706761 L 1510 697.8291206378055 L 1511 699.0009308076702 L 1512 700.1660699599279 L 1513 701.3245119240751 L 1514 702.476230680036 L 1515 703.6212003587468 L 1516 704.7593952427364 L 1517 705.8907897667037 L 1518 707.015358518093 L 1519 708.1330762376633 L 1520 709.2439178200575 L 1521 710.3478583143647 L 1522 711.4448729246809 L 1523 712.5349370106668 L 1524 713.6180260881002 L 1525 714.6941158294268 L 1526 715.7631820643063 L 1527 716.825200780155 L 1528 717.8801481226856 L 1529 718.9280003964425 L 1530 719.9687340653347 L 1531 721.0023257531642 L 1532 722.0287522441506 L 1533 723.047990483453 L 1534 724.0600175776879 L 1535 725.0648107954428 L 1536 726.0623475677879 L 1537 727.0526054887822 L 1538 728.0355623159767 L 1539 729.0111959709142" stroke-linecap="round" stroke-linejoin="round" stroke-miterlimit="10" stroke-width="40"/></g></svg>